<svg height="42.792" viewBox="0 0 27.731 42.792" width="27.731" xmlns="http://www.w3.org/2000/svg"><g fill="#fff"><path d="m110.014 67.593h.826c4.663 0 8.456-4.123 8.456-9.19v-12.713c0-5.067-3.793-9.19-8.456-9.19h-.826c-4.663 0-8.456 4.123-8.456 9.19v12.71c0 5.071 3.793 9.193 8.456 9.193zm0-29.7h.826c3.956 0 7.175 3.5 7.175 7.8v12.707c0 4.3-3.219 7.8-7.175 7.8h-.826a7.283 7.283 0 0 1 -6.846-5.464h5.232v-1.392h-5.5a8.518 8.518 0 0 1 -.054-.94v-1.664h5.554v-1.393h-5.56v-2.6h5.56v-1.397h-5.56v-2.6h5.56v-1.397h-5.56v-1.663a8.518 8.518 0 0 1 .054-.94h5.5v-1.394h-5.227a7.283 7.283 0 0 1 6.847-5.463z" transform="translate(-96.562 -36.5)"/><path d="m102.86 133.65v2.573c0 7.054-5.437 12.793-12.12 12.793h-.851c-6.683 0-12.12-5.739-12.12-12.793v-2.573h-1.32v2.573c0 7.739 5.9 14.046 13.206 14.179v7.691h-5.422v1.393h12.167v-1.393h-5.426v-7.693c7.3-.133 13.206-6.44 13.206-14.179v-2.571z" transform="translate(-76.449 -116.694)"/></g></svg>