<svg height="582" viewBox="0 0 750 582" width="750" xmlns="http://www.w3.org/2000/svg" xmlns:xlink="http://www.w3.org/1999/xlink"><clipPath id="a"><path d="m0 0h750v582h-750z"/></clipPath><g clip-path="url(#a)" fill="#f3f2f5"><circle cx="5.5" cy="5.5" r="5.5"/><circle cx="5.5" cy="5.5" r="5.5" transform="translate(47)"/><circle cx="5.5" cy="5.5" r="5.5" transform="translate(94)"/><circle cx="5.5" cy="5.5" r="5.5" transform="translate(141)"/><circle cx="5.5" cy="5.5" r="5.5" transform="translate(188)"/><circle cx="5.5" cy="5.5" r="5.5" transform="translate(235)"/><circle cx="5.5" cy="5.5" r="5.5" transform="translate(282)"/><circle cx="5.5" cy="5.5" r="5.5" transform="translate(329)"/><circle cx="5.5" cy="5.5" r="5.5" transform="translate(376)"/><circle cx="5.5" cy="5.5" r="5.5" transform="translate(423)"/><circle cx="5.5" cy="5.5" r="5.5" transform="translate(470)"/><circle cx="5.5" cy="5.5" r="5.5" transform="translate(517)"/><circle cx="5.5" cy="5.5" r="5.5" transform="translate(564)"/><circle cx="5.5" cy="5.5" r="5.5" transform="translate(611)"/><circle cx="5.5" cy="5.5" r="5.5" transform="translate(658)"/><circle cx="5.5" cy="5.5" r="5.5" transform="translate(705)"/><circle cx="5.5" cy="5.5" r="5.5" transform="translate(0 47)"/><circle cx="5.5" cy="5.5" r="5.5" transform="translate(47 47)"/><circle cx="5.5" cy="5.5" r="5.5" transform="translate(94 47)"/><circle cx="5.5" cy="5.5" r="5.5" transform="translate(141 47)"/><circle cx="5.5" cy="5.5" r="5.5" transform="translate(188 47)"/><circle cx="5.5" cy="5.5" r="5.5" transform="translate(235 47)"/><circle cx="5.5" cy="5.5" r="5.5" transform="translate(282 47)"/><circle cx="5.5" cy="5.5" r="5.5" transform="translate(329 47)"/><circle cx="5.5" cy="5.5" r="5.5" transform="translate(376 47)"/><circle cx="5.5" cy="5.5" r="5.5" transform="translate(423 47)"/><circle cx="5.5" cy="5.5" r="5.5" transform="translate(470 47)"/><circle cx="5.5" cy="5.5" r="5.5" transform="translate(517 47)"/><circle cx="5.5" cy="5.5" r="5.5" transform="translate(564 47)"/><circle cx="5.5" cy="5.5" r="5.5" transform="translate(611 47)"/><circle cx="5.5" cy="5.5" r="5.5" transform="translate(658 47)"/><circle cx="5.5" cy="5.5" r="5.5" transform="translate(705 47)"/><circle cx="5.5" cy="5.5" r="5.5" transform="translate(0 94)"/><circle cx="5.5" cy="5.5" r="5.5" transform="translate(47 94)"/><circle cx="5.5" cy="5.5" r="5.5" transform="translate(94 94)"/><circle cx="5.5" cy="5.5" r="5.5" transform="translate(141 94)"/><circle cx="5.5" cy="5.5" r="5.5" transform="translate(188 94)"/><circle cx="5.5" cy="5.5" r="5.5" transform="translate(235 94)"/><circle cx="5.5" cy="5.5" r="5.5" transform="translate(282 94)"/><circle cx="5.5" cy="5.5" r="5.5" transform="translate(329 94)"/><circle cx="5.5" cy="5.5" r="5.5" transform="translate(376 94)"/><circle cx="5.5" cy="5.5" r="5.5" transform="translate(423 94)"/><circle cx="5.5" cy="5.5" r="5.5" transform="translate(470 94)"/><circle cx="5.5" cy="5.5" r="5.5" transform="translate(517 94)"/><circle cx="5.5" cy="5.5" r="5.5" transform="translate(564 94)"/><circle cx="5.5" cy="5.5" r="5.5" transform="translate(611 94)"/><circle cx="5.5" cy="5.5" r="5.5" transform="translate(658 94)"/><circle cx="5.5" cy="5.5" r="5.5" transform="translate(705 94)"/><circle cx="5.5" cy="5.5" r="5.5" transform="translate(0 141)"/><circle cx="5.5" cy="5.5" r="5.5" transform="translate(47 141)"/><circle cx="5.5" cy="5.5" r="5.5" transform="translate(94 141)"/><circle cx="5.5" cy="5.5" r="5.5" transform="translate(141 141)"/><circle cx="5.5" cy="5.5" r="5.5" transform="translate(188 141)"/><circle cx="5.5" cy="5.5" r="5.5" transform="translate(235 141)"/><circle cx="5.5" cy="5.5" r="5.5" transform="translate(282 141)"/><circle cx="5.5" cy="5.5" r="5.5" transform="translate(329 141)"/><circle cx="5.5" cy="5.5" r="5.5" transform="translate(376 141)"/><circle cx="5.5" cy="5.5" r="5.5" transform="translate(423 141)"/><circle cx="5.5" cy="5.5" r="5.5" transform="translate(470 141)"/><circle cx="5.5" cy="5.5" r="5.5" transform="translate(517 141)"/><circle cx="5.5" cy="5.5" r="5.5" transform="translate(564 141)"/><circle cx="5.5" cy="5.5" r="5.5" transform="translate(611 141)"/><circle cx="5.5" cy="5.5" r="5.5" transform="translate(658 141)"/><circle cx="5.5" cy="5.5" r="5.5" transform="translate(705 141)"/><circle cx="5.5" cy="5.5" r="5.5" transform="translate(0 188)"/><circle cx="5.5" cy="5.5" r="5.5" transform="translate(47 188)"/><circle cx="5.5" cy="5.5" r="5.5" transform="translate(94 188)"/><circle cx="5.5" cy="5.5" r="5.5" transform="translate(141 188)"/><circle cx="5.5" cy="5.5" r="5.5" transform="translate(188 188)"/><circle cx="5.5" cy="5.5" r="5.5" transform="translate(235 188)"/><circle cx="5.5" cy="5.5" r="5.5" transform="translate(282 188)"/><circle cx="5.5" cy="5.5" r="5.5" transform="translate(329 188)"/><circle cx="5.5" cy="5.5" r="5.5" transform="translate(376 188)"/><circle cx="5.5" cy="5.5" r="5.5" transform="translate(423 188)"/><circle cx="5.5" cy="5.5" r="5.5" transform="translate(470 188)"/><circle cx="5.5" cy="5.5" r="5.5" transform="translate(517 188)"/><circle cx="5.5" cy="5.5" r="5.5" transform="translate(564 188)"/><circle cx="5.5" cy="5.5" r="5.5" transform="translate(611 188)"/><circle cx="5.5" cy="5.5" r="5.5" transform="translate(658 188)"/><circle cx="5.5" cy="5.5" r="5.5" transform="translate(705 188)"/><circle cx="5.5" cy="5.5" r="5.5" transform="translate(0 235)"/><circle cx="5.5" cy="5.5" r="5.5" transform="translate(47 235)"/><circle cx="5.5" cy="5.5" r="5.5" transform="translate(94 235)"/><circle cx="5.5" cy="5.5" r="5.5" transform="translate(141 235)"/><circle cx="5.5" cy="5.5" r="5.5" transform="translate(188 235)"/><circle cx="5.5" cy="5.5" r="5.5" transform="translate(235 235)"/><circle cx="5.5" cy="5.5" r="5.5" transform="translate(282 235)"/><circle cx="5.5" cy="5.5" r="5.5" transform="translate(329 235)"/><circle cx="5.5" cy="5.5" r="5.5" transform="translate(376 235)"/><circle cx="5.5" cy="5.5" r="5.5" transform="translate(423 235)"/><circle cx="5.5" cy="5.5" r="5.5" transform="translate(470 235)"/><circle cx="5.5" cy="5.5" r="5.5" transform="translate(517 235)"/><circle cx="5.5" cy="5.5" r="5.5" transform="translate(564 235)"/><circle cx="5.5" cy="5.5" r="5.5" transform="translate(611 235)"/><circle cx="5.5" cy="5.5" r="5.5" transform="translate(658 235)"/><circle cx="5.5" cy="5.5" r="5.5" transform="translate(705 235)"/><circle cx="5.5" cy="5.5" r="5.5" transform="translate(0 282)"/><circle cx="5.5" cy="5.5" r="5.5" transform="translate(47 282)"/><circle cx="5.5" cy="5.5" r="5.5" transform="translate(94 282)"/><circle cx="5.5" cy="5.5" r="5.5" transform="translate(141 282)"/><circle cx="5.5" cy="5.5" r="5.5" transform="translate(188 282)"/><circle cx="5.5" cy="5.5" r="5.5" transform="translate(235 282)"/><circle cx="5.5" cy="5.5" r="5.5" transform="translate(282 282)"/><circle cx="5.5" cy="5.5" r="5.5" transform="translate(329 282)"/><circle cx="5.5" cy="5.5" r="5.5" transform="translate(376 282)"/><circle cx="5.5" cy="5.5" r="5.5" transform="translate(423 282)"/><circle cx="5.5" cy="5.5" r="5.5" transform="translate(470 282)"/><circle cx="5.5" cy="5.5" r="5.5" transform="translate(517 282)"/><circle cx="5.5" cy="5.5" r="5.5" transform="translate(564 282)"/><circle cx="5.5" cy="5.5" r="5.5" transform="translate(611 282)"/><circle cx="5.5" cy="5.5" r="5.5" transform="translate(658 282)"/><circle cx="5.5" cy="5.5" r="5.5" transform="translate(705 282)"/><circle cx="5.5" cy="5.5" r="5.5" transform="translate(0 329)"/><circle cx="5.5" cy="5.5" r="5.5" transform="translate(47 329)"/><circle cx="5.5" cy="5.5" r="5.5" transform="translate(94 329)"/><circle cx="5.5" cy="5.5" r="5.5" transform="translate(141 329)"/><circle cx="5.5" cy="5.5" r="5.5" transform="translate(188 329)"/><circle cx="5.5" cy="5.5" r="5.5" transform="translate(235 329)"/><circle cx="5.5" cy="5.5" r="5.5" transform="translate(282 329)"/><circle cx="5.5" cy="5.5" r="5.5" transform="translate(329 329)"/><circle cx="5.5" cy="5.5" r="5.5" transform="translate(376 329)"/><circle cx="5.5" cy="5.5" r="5.5" transform="translate(423 329)"/><circle cx="5.5" cy="5.5" r="5.5" transform="translate(470 329)"/><circle cx="5.5" cy="5.5" r="5.5" transform="translate(517 329)"/><circle cx="5.5" cy="5.5" r="5.5" transform="translate(564 329)"/><circle cx="5.5" cy="5.5" r="5.5" transform="translate(611 329)"/><circle cx="5.5" cy="5.5" r="5.5" transform="translate(658 329)"/><circle cx="5.5" cy="5.5" r="5.5" transform="translate(705 329)"/><circle cx="5.5" cy="5.5" r="5.5" transform="translate(0 376)"/><circle cx="5.5" cy="5.5" r="5.5" transform="translate(47 376)"/><circle cx="5.5" cy="5.5" r="5.5" transform="translate(94 376)"/><circle cx="5.5" cy="5.5" r="5.5" transform="translate(141 376)"/><circle cx="5.5" cy="5.5" r="5.5" transform="translate(188 376)"/><circle cx="5.5" cy="5.5" r="5.5" transform="translate(235 376)"/><circle cx="5.5" cy="5.5" r="5.5" transform="translate(282 376)"/><circle cx="5.5" cy="5.5" r="5.5" transform="translate(329 376)"/><circle cx="5.5" cy="5.5" r="5.5" transform="translate(376 376)"/><circle cx="5.5" cy="5.5" r="5.5" transform="translate(423 376)"/><circle cx="5.5" cy="5.5" r="5.5" transform="translate(470 376)"/><circle cx="5.5" cy="5.5" r="5.5" transform="translate(517 376)"/><circle cx="5.5" cy="5.5" r="5.5" transform="translate(564 376)"/><circle cx="5.5" cy="5.5" r="5.5" transform="translate(611 376)"/><circle cx="5.5" cy="5.5" r="5.5" transform="translate(658 376)"/><circle cx="5.5" cy="5.5" r="5.5" transform="translate(705 376)"/><circle cx="5.5" cy="5.5" r="5.5" transform="translate(0 423)"/><circle cx="5.5" cy="5.5" r="5.5" transform="translate(47 423)"/><circle cx="5.5" cy="5.5" r="5.5" transform="translate(94 423)"/><circle cx="5.5" cy="5.5" r="5.5" transform="translate(141 423)"/><circle cx="5.5" cy="5.5" r="5.5" transform="translate(188 423)"/><circle cx="5.5" cy="5.5" r="5.5" transform="translate(235 423)"/><circle cx="5.5" cy="5.5" r="5.5" transform="translate(282 423)"/><circle cx="5.5" cy="5.5" r="5.5" transform="translate(329 423)"/><circle cx="5.5" cy="5.5" r="5.5" transform="translate(376 423)"/><circle cx="5.5" cy="5.5" r="5.5" transform="translate(423 423)"/><circle cx="5.5" cy="5.5" r="5.5" transform="translate(470 423)"/><circle cx="5.5" cy="5.5" r="5.5" transform="translate(517 423)"/><circle cx="5.5" cy="5.5" r="5.5" transform="translate(564 423)"/><circle cx="5.5" cy="5.5" r="5.5" transform="translate(611 423)"/><circle cx="5.5" cy="5.5" r="5.5" transform="translate(658 423)"/><circle cx="5.5" cy="5.5" r="5.5" transform="translate(705 423)"/><circle cx="5.5" cy="5.5" r="5.5" transform="translate(0 470)"/><circle cx="5.5" cy="5.5" r="5.5" transform="translate(47 470)"/><circle cx="5.5" cy="5.5" r="5.5" transform="translate(94 470)"/><circle cx="5.5" cy="5.5" r="5.5" transform="translate(141 470)"/><circle cx="5.5" cy="5.5" r="5.5" transform="translate(188 470)"/><circle cx="5.5" cy="5.5" r="5.5" transform="translate(235 470)"/><circle cx="5.5" cy="5.5" r="5.5" transform="translate(282 470)"/><circle cx="5.5" cy="5.5" r="5.5" transform="translate(329 470)"/><circle cx="5.5" cy="5.5" r="5.5" transform="translate(376 470)"/><circle cx="5.5" cy="5.5" r="5.5" transform="translate(423 470)"/><circle cx="5.5" cy="5.5" r="5.5" transform="translate(470 470)"/><circle cx="5.5" cy="5.5" r="5.5" transform="translate(517 470)"/><circle cx="5.5" cy="5.5" r="5.5" transform="translate(564 470)"/><circle cx="5.5" cy="5.5" r="5.5" transform="translate(611 470)"/><circle cx="5.5" cy="5.5" r="5.5" transform="translate(658 470)"/><circle cx="5.5" cy="5.5" r="5.5" transform="translate(705 470)"/><circle cx="5.5" cy="5.5" r="5.5" transform="translate(0 517)"/><circle cx="5.5" cy="5.5" r="5.5" transform="translate(47 517)"/><circle cx="5.5" cy="5.5" r="5.5" transform="translate(94 517)"/><circle cx="5.5" cy="5.5" r="5.5" transform="translate(141 517)"/><circle cx="5.5" cy="5.5" r="5.5" transform="translate(188 517)"/><circle cx="5.5" cy="5.5" r="5.5" transform="translate(235 517)"/><circle cx="5.5" cy="5.5" r="5.5" transform="translate(282 517)"/><circle cx="5.5" cy="5.5" r="5.5" transform="translate(329 517)"/><circle cx="5.5" cy="5.5" r="5.5" transform="translate(376 517)"/><circle cx="5.5" cy="5.5" r="5.5" transform="translate(423 517)"/><circle cx="5.5" cy="5.5" r="5.5" transform="translate(470 517)"/><circle cx="5.5" cy="5.5" r="5.5" transform="translate(517 517)"/><circle cx="5.5" cy="5.5" r="5.5" transform="translate(564 517)"/><circle cx="5.5" cy="5.5" r="5.5" transform="translate(611 517)"/><circle cx="5.5" cy="5.5" r="5.5" transform="translate(658 517)"/><circle cx="5.5" cy="5.5" r="5.5" transform="translate(705 517)"/><circle cx="5.5" cy="5.5" r="5.5" transform="translate(0 564)"/><circle cx="5.5" cy="5.5" r="5.5" transform="translate(47 564)"/><circle cx="5.5" cy="5.5" r="5.5" transform="translate(94 564)"/><circle cx="5.5" cy="5.5" r="5.5" transform="translate(141 564)"/><circle cx="5.5" cy="5.5" r="5.5" transform="translate(188 564)"/><circle cx="5.5" cy="5.5" r="5.5" transform="translate(235 564)"/><circle cx="5.5" cy="5.5" r="5.5" transform="translate(282 564)"/><circle cx="5.5" cy="5.5" r="5.5" transform="translate(329 564)"/><circle cx="5.5" cy="5.5" r="5.5" transform="translate(376 564)"/><circle cx="5.5" cy="5.5" r="5.5" transform="translate(423 564)"/><circle cx="5.5" cy="5.5" r="5.5" transform="translate(470 564)"/><circle cx="5.5" cy="5.5" r="5.5" transform="translate(517 564)"/><circle cx="5.5" cy="5.5" r="5.5" transform="translate(564 564)"/><circle cx="5.5" cy="5.5" r="5.5" transform="translate(611 564)"/><circle cx="5.5" cy="5.5" r="5.5" transform="translate(658 564)"/><circle cx="5.5" cy="5.5" r="5.5" transform="translate(705 564)"/></g></svg>