<svg height="147.047" viewBox="0 0 159.914 147.047" width="159.914" xmlns="http://www.w3.org/2000/svg"><g fill="none"><path d="m0 0h159.914v147.047h-159.914z"/><g stroke="#000" stroke-linecap="round" stroke-linejoin="round" stroke-width="3"><circle cx="81.085" cy="57.849" r="13.413"/><path d="m17 47.473a23.473 23.473 0 1 1 46.946 0" transform="translate(40.612 47.628)"/><path d="m117.77 9h-105.195a6.642 6.642 0 0 0 -6.575 6.707v80.478a6.642 6.642 0 0 0 6.575 6.707h39.448l13.149 13.408 13.149-13.413h39.449a6.642 6.642 0 0 0 6.575-6.707v-80.473a6.642 6.642 0 0 0 -6.575-6.707z" transform="translate(15.913 7.043)"/></g></g></svg>