<svg height="125.108" viewBox="0 0 129 125.108" width="129" xmlns="http://www.w3.org/2000/svg"><g fill="none" stroke="#231815" stroke-linecap="round" stroke-linejoin="round" stroke-width="3"><path d="m70.843 20.12h-49.987a13.47 13.47 0 0 0 -13.356 13.508v62.351l17.171-17.133h46.172a13.47 13.47 0 0 0 13.432-13.394v-31.824a13.47 13.47 0 0 0 -13.432-13.508z" transform="translate(-6 27.628)"/><path d="m20.38 43.755v-22.285a13.47 13.47 0 0 1 13.432-13.47h49.988a13.47 13.47 0 0 1 13.432 13.47v62.389l-17.248-17.133h-20.984" transform="translate(30.268 -6.5)"/><path d="m39.354 77.359h18.66"/></g><circle cx="26.685" cy="77.359" fill="#231815" r="3.129"/><path d="m87.167 31.34h18.66" fill="none" stroke="#231815" stroke-linecap="round" stroke-linejoin="round" stroke-width="3"/><circle cx="74.498" cy="31.378" fill="#231815" r="3.129"/></svg>