<svg height="126" viewBox="0 0 126 126" width="126" xmlns="http://www.w3.org/2000/svg"><g fill="none"><path d="m0 0h126v126h-126z"/><path d="m35.887 101.384v-42.063l-7.887-5.258v-37.857a4.206 4.206 0 0 1 4.206-4.206h28.394a4.18 4.18 0 0 1 4.206 4.206v37.857l-7.887 5.258v42.063" stroke="#000" stroke-linecap="round" stroke-linejoin="round" stroke-width="3" transform="translate(45.611 19.547)"/><path d="m7 46.176v-26.289a7.887 7.887 0 0 1 7.887-7.887h15.774a7.887 7.887 0 0 1 7.887 7.887v26.29" stroke="#000" stroke-linecap="round" stroke-linejoin="round" stroke-width="3" transform="translate(11.403 19.547)"/></g><circle cx="92" cy="11" r="8"/><circle cx="34" cy="11" r="8"/><path d="m7 71h67" fill="none" stroke="#000" stroke-linecap="round" stroke-linejoin="round" stroke-width="3"/><path d="m7 71h67" fill="none" stroke="#000" stroke-linecap="round" stroke-linejoin="round" stroke-width="3"/><path d="m111 71h10" fill="none" stroke="#000" stroke-linecap="round" stroke-linejoin="round" stroke-width="3"/></svg>