<svg height="86.281" viewBox="0 0 96 86.281" width="96" xmlns="http://www.w3.org/2000/svg"><g fill="none"><path d="m0 1.308h96v84h-96z"/><g stroke="#000" stroke-linecap="round" stroke-linejoin="round" stroke-width="2"><circle cx="47.773" cy="33.835" r="10.535"/><path d="m17 42.436a18.436 18.436 0 1 1 36.873 0" transform="translate(12.336 20.658)"/><path d="m93.788 9h-82.624a5.217 5.217 0 0 0 -5.164 5.268v63.21a5.217 5.217 0 0 0 5.164 5.268h30.984l10.328 10.535 10.324-10.535h30.988a5.217 5.217 0 0 0 5.164-5.268v-63.21a5.217 5.217 0 0 0 -5.164-5.268z" transform="translate(-4.703 -8.001)"/></g></g></svg>