<svg height="76.199" viewBox="0 0 67.698 76.199" width="67.698" xmlns="http://www.w3.org/2000/svg"><g fill="#fff"><path d="m146.822 176.439a12.038 12.038 0 0 1 1.638-.107 7.024 7.024 0 1 1 6.677 0c.653-.353 2.6.038 3.435-.009.752-.042 3.092-.06 3.554-.764.427-.652-.176-2.93-.238-3.733a2.255 2.255 0 0 1 2.075-2.421c.068-.005.136-.006.2 0h.1s.081 0 .121.009.066.009.1.015.077.012.116.02l.1.023c.038.01.076.02.113.032l.093.032c.036.013.073.027.108.042l.091.041.05.025.051.026.084.048.065.041.032.02c.027.018.053.036.079.055s.037.028.055.043l.036.028.074.062c.029.026.057.052.084.079s.046.045.068.069.05.056.076.087.041.048.061.074.045.062.068.1.036.051.053.078.041.069.061.1.031.054.045.081.035.076.052.114.025.055.037.083.021.059.03.089l.012.036c.009.028.019.054.027.082s.014.058.02.087.009.038.014.058.012.047.016.071a2.247 2.247 0 0 1 .029.224l.432 5.61a2.255 2.255 0 0 1 -1.607 2.335c-1.764.523-3.07.871-4.06 1.094.008.107.016.214.016.322v2.394h-18.865v-2.394c0-2.918 2.145-4.073 4.522-4.401z" transform="translate(-127.193 -136.057)"/><path d="m59.528 44.5a29.526 29.526 0 0 0 8.7 21.011 30.2 30.2 0 0 0 2.6 2.315 29.488 29.488 0 0 0 18.411 6.388 30.063 30.063 0 0 0 5.126-.438q1.437-.248 2.835-.635a29.36 29.36 0 0 0 7.907-3.506q.307-.194.609-.4 1.21-.809 2.346-1.742.284-.233.562-.474.558-.481 1.095-.993.269-.256.532-.519a29.715 29.715 0 1 0 -50.723-21.007zm44.042-14.245h-35.12c.079-.115.158-.23.239-.344q.31-.436.64-.858c.153-.2.307-.392.466-.584q.385-.467.792-.914t.835-.875q.214-.214.433-.422t.443-.412q.258-.235.524-.462.379-.325.77-.636l.2-.16q.422-.328.858-.64c.23-.164.464-.322.7-.478q.308-.2.623-.4.2-.121.393-.239c.284-.169.57-.334.861-.492q.536-.291 1.087-.557t1.116-.5q.283-.12.569-.232.859-.338 1.747-.615a25.057 25.057 0 0 1 3.033-.739q.621-.111 1.252-.191t1.271-.129q.96-.073 1.939-.074a25.093 25.093 0 0 1 12.014 3.042q.536.291 1.056.607t1.023.655q.5.34.988.7t.952.748q.467.385.915.792.224.2.443.412.657.626 1.267 1.3.407.448.792.914.578.7 1.106 1.442t1 1.521a25.113 25.113 0 0 1 1.422 2.7q.379.837.7 1.706.106.289.205.582.2.586.368 1.184.085.3.163.6.155.6.281 1.22t.222 1.241q.1.626.16 1.261t.1 1.28q.033.644.033 1.3a25.108 25.108 0 0 1 -6.367 16.744v-26.488a4.51 4.51 0 0 0 -4.514-4.51zm-19.157.966a1.425 1.425 0 1 1 -1.425 1.425 1.425 1.425 0 0 1 1.425-1.425zm-17.554 3.544h36.711v28.553h-31.094c-.06-.053-.121-.106-.18-.16q-.224-.2-.443-.412-.656-.626-1.267-1.3-.407-.448-.792-.914t-.748-.952q-.363-.485-.7-.988t-.656-1.022q-.316-.52-.607-1.056c-.075-.139-.149-.279-.222-.42z" transform="translate(-59.528 -14.787)"/><path d="m0 0h5.724v2.48h-5.724z" transform="matrix(.92376595 -.38295754 .38295754 .92376595 61.461 14.509)"/><path d="m0 0h5.724v2.48h-5.724z" transform="matrix(.77614546 -.6305539 .6305539 .77614546 58.661 11.098)"/><path d="m0 0h5.724v2.48h-5.724z" transform="matrix(.548 -.836 .836 .548 55.31 8.221)"/><path d="m125.849 366.217c0 3.877-1.9 5.539-4.6 5.539s-4.6-1.662-4.6-5.539 1.9-5.539 4.6-5.539 4.6 1.662 4.6 5.539zm-2.7 0c0-2.741-.678-3.739-1.9-3.739s-1.9 1-1.9 3.739.678 3.739 1.9 3.739 1.9-.998 1.9-3.739z" transform="translate(-112.655 -295.557)"/><path d="m169.408 361.241v10.8h-3.6l-2.3-6.439a17.5 17.5 0 0 1 -.623-2.215h-.124c.18 1.772.263 4.265.263 5.774v2.88h-2.243v-10.8h3.6l2.3 6.439a17.6 17.6 0 0 1 .637 2.216h.124c-.18-1.786-.277-3.683-.277-5.483v-3.171z" transform="translate(-145.927 -295.982)"/><path d="m211.54 370.1v1.938h-6.688v-10.8h2.562v8.862z" transform="translate(-179.156 -295.982)"/><path d="m240.228 372.041h-2.562v-10.8h2.562z" transform="translate(-203.898 -295.982)"/><path d="m265.71 361.241v10.8h-3.6l-2.3-6.439a17.533 17.533 0 0 1 -.623-2.215h-.125c.18 1.772.263 4.265.263 5.774v2.88h-2.243v-10.8h3.6l2.3 6.439a17.648 17.648 0 0 1 .637 2.216h.124c-.18-1.786-.277-3.683-.277-5.483v-3.171z" transform="translate(-218.539 -295.982)"/><path d="m307.774 370.172v1.869h-6.619v-10.8h6.494v1.869h-4v2.562h3.6v1.8h-3.6v2.7z" transform="translate(-251.769 -295.982)"/></g></svg>